<mxfile host="app.diagrams.net" modified="2022-05-10T01:12:47.660Z" agent="5.0 (Windows NT 10.0; Win64; x64) AppleWebKit/537.36 (KHTML, like Gecko) Chrome/101.0.4951.54 Safari/537.36" etag="2AIbSWSZZJJ2Ntqkb1MF" version="18.0.2" type="github">
  <diagram id="OvusPcNqhZ2MnsVl9zv4" name="Page-1">
    <mxGraphModel dx="1662" dy="762" grid="1" gridSize="10" guides="1" tooltips="1" connect="1" arrows="1" fold="1" page="1" pageScale="1" pageWidth="850" pageHeight="1100" math="0" shadow="0">
      <root>
        <mxCell id="0" />
        <mxCell id="1" parent="0" />
        <mxCell id="6A2ZHdtNZnWq72weHdzW-8" style="edgeStyle=orthogonalEdgeStyle;rounded=0;orthogonalLoop=1;jettySize=auto;html=1;exitX=1;exitY=0.5;exitDx=0;exitDy=0;entryX=0;entryY=0.5;entryDx=0;entryDy=0;" edge="1" parent="1" source="6A2ZHdtNZnWq72weHdzW-1" target="6A2ZHdtNZnWq72weHdzW-3">
          <mxGeometry relative="1" as="geometry">
            <Array as="points">
              <mxPoint x="380" y="300" />
            </Array>
          </mxGeometry>
        </mxCell>
        <mxCell id="6A2ZHdtNZnWq72weHdzW-1" value="&amp;nbsp; &amp;nbsp; &amp;nbsp; &amp;nbsp; &amp;nbsp; &amp;nbsp;" style="ellipse;whiteSpace=wrap;html=1;" vertex="1" parent="1">
          <mxGeometry x="190" y="250" width="100" height="100" as="geometry" />
        </mxCell>
        <mxCell id="6A2ZHdtNZnWq72weHdzW-3" value="Browse&lt;br&gt;Articles" style="whiteSpace=wrap;html=1;aspect=fixed;direction=south;" vertex="1" parent="1">
          <mxGeometry x="340" y="410" width="80" height="80" as="geometry" />
        </mxCell>
        <mxCell id="6A2ZHdtNZnWq72weHdzW-5" value="Click Shared url" style="whiteSpace=wrap;html=1;aspect=fixed;" vertex="1" parent="1">
          <mxGeometry x="60" y="410" width="80" height="80" as="geometry" />
        </mxCell>
        <mxCell id="6A2ZHdtNZnWq72weHdzW-6" value="" style="endArrow=classic;html=1;rounded=0;entryX=0.5;entryY=0;entryDx=0;entryDy=0;exitX=0;exitY=0.5;exitDx=0;exitDy=0;" edge="1" parent="1" source="6A2ZHdtNZnWq72weHdzW-1" target="6A2ZHdtNZnWq72weHdzW-5">
          <mxGeometry width="50" height="50" relative="1" as="geometry">
            <mxPoint x="180" y="320" as="sourcePoint" />
            <mxPoint x="450" y="360" as="targetPoint" />
            <Array as="points">
              <mxPoint x="100" y="300" />
            </Array>
          </mxGeometry>
        </mxCell>
        <mxCell id="6A2ZHdtNZnWq72weHdzW-9" value="Read Articles" style="shape=process;whiteSpace=wrap;html=1;backgroundOutline=1;" vertex="1" parent="1">
          <mxGeometry x="180" y="660" width="120" height="60" as="geometry" />
        </mxCell>
        <mxCell id="6A2ZHdtNZnWq72weHdzW-13" value="" style="endArrow=classic;html=1;rounded=0;exitX=0.5;exitY=1;exitDx=0;exitDy=0;entryX=0;entryY=0.5;entryDx=0;entryDy=0;" edge="1" parent="1" source="6A2ZHdtNZnWq72weHdzW-5" target="6A2ZHdtNZnWq72weHdzW-25">
          <mxGeometry width="50" height="50" relative="1" as="geometry">
            <mxPoint x="400" y="400" as="sourcePoint" />
            <mxPoint x="470" y="540" as="targetPoint" />
          </mxGeometry>
        </mxCell>
        <mxCell id="6A2ZHdtNZnWq72weHdzW-14" value="" style="endArrow=classic;html=1;rounded=0;exitX=1;exitY=0.5;exitDx=0;exitDy=0;entryX=1;entryY=0.5;entryDx=0;entryDy=0;" edge="1" parent="1" source="6A2ZHdtNZnWq72weHdzW-3" target="6A2ZHdtNZnWq72weHdzW-25">
          <mxGeometry width="50" height="50" relative="1" as="geometry">
            <mxPoint x="400" y="400" as="sourcePoint" />
            <mxPoint x="450" y="350" as="targetPoint" />
          </mxGeometry>
        </mxCell>
        <mxCell id="6A2ZHdtNZnWq72weHdzW-17" value="User" style="shape=umlActor;verticalLabelPosition=bottom;verticalAlign=top;html=1;outlineConnect=0;" vertex="1" parent="1">
          <mxGeometry x="225" y="262.5" width="30" height="60" as="geometry" />
        </mxCell>
        <mxCell id="6A2ZHdtNZnWq72weHdzW-22" value="Create Articles" style="rhombus;whiteSpace=wrap;html=1;" vertex="1" parent="1">
          <mxGeometry x="490" y="540" width="80" height="80" as="geometry" />
        </mxCell>
        <mxCell id="6A2ZHdtNZnWq72weHdzW-23" value="" style="ellipse;whiteSpace=wrap;html=1;aspect=fixed;" vertex="1" parent="1">
          <mxGeometry x="480" y="410" width="100" height="100" as="geometry" />
        </mxCell>
        <mxCell id="6A2ZHdtNZnWq72weHdzW-15" value="Writer/journalist" style="shape=umlActor;verticalLabelPosition=bottom;verticalAlign=top;html=1;outlineConnect=0;fontFamily=Helvetica;fontSize=12;fontColor=default;align=center;strokeColor=default;fillColor=default;" vertex="1" parent="1">
          <mxGeometry x="505" y="416.25" width="50" height="87.5" as="geometry" />
        </mxCell>
        <mxCell id="6A2ZHdtNZnWq72weHdzW-24" value="" style="endArrow=classic;html=1;rounded=0;exitX=0;exitY=0.5;exitDx=0;exitDy=0;entryX=1;entryY=0.75;entryDx=0;entryDy=0;" edge="1" parent="1" source="6A2ZHdtNZnWq72weHdzW-22" target="6A2ZHdtNZnWq72weHdzW-25">
          <mxGeometry width="50" height="50" relative="1" as="geometry">
            <mxPoint x="400" y="400" as="sourcePoint" />
            <mxPoint x="380" y="360" as="targetPoint" />
          </mxGeometry>
        </mxCell>
        <mxCell id="6A2ZHdtNZnWq72weHdzW-25" value="Articles" style="rounded=0;whiteSpace=wrap;html=1;" vertex="1" parent="1">
          <mxGeometry x="180" y="550" width="120" height="60" as="geometry" />
        </mxCell>
        <mxCell id="6A2ZHdtNZnWq72weHdzW-26" value="" style="endArrow=classic;html=1;rounded=0;exitX=0.5;exitY=1;exitDx=0;exitDy=0;entryX=0.5;entryY=0;entryDx=0;entryDy=0;" edge="1" parent="1" source="6A2ZHdtNZnWq72weHdzW-25" target="6A2ZHdtNZnWq72weHdzW-9">
          <mxGeometry width="50" height="50" relative="1" as="geometry">
            <mxPoint x="400" y="400" as="sourcePoint" />
            <mxPoint x="450" y="350" as="targetPoint" />
          </mxGeometry>
        </mxCell>
        <mxCell id="6A2ZHdtNZnWq72weHdzW-27" value="" style="ellipse;whiteSpace=wrap;html=1;" vertex="1" parent="1">
          <mxGeometry x="670" y="290" width="100" height="100" as="geometry" />
        </mxCell>
        <mxCell id="6A2ZHdtNZnWq72weHdzW-28" value="Admin" style="shape=umlActor;verticalLabelPosition=bottom;verticalAlign=top;html=1;outlineConnect=0;" vertex="1" parent="1">
          <mxGeometry x="705" y="300" width="30" height="60" as="geometry" />
        </mxCell>
        <mxCell id="6A2ZHdtNZnWq72weHdzW-29" value="" style="shape=flexArrow;endArrow=classic;html=1;rounded=0;entryX=1;entryY=0;entryDx=0;entryDy=0;" edge="1" parent="1" source="6A2ZHdtNZnWq72weHdzW-27" target="6A2ZHdtNZnWq72weHdzW-23">
          <mxGeometry width="50" height="50" relative="1" as="geometry">
            <mxPoint x="400" y="400" as="sourcePoint" />
            <mxPoint x="450" y="350" as="targetPoint" />
          </mxGeometry>
        </mxCell>
        <mxCell id="6A2ZHdtNZnWq72weHdzW-30" value="Give Privilege to&lt;br&gt;create articles&amp;nbsp;" style="text;html=1;align=center;verticalAlign=middle;resizable=0;points=[];autosize=1;strokeColor=none;fillColor=none;" vertex="1" parent="1">
          <mxGeometry x="570" y="340" width="100" height="30" as="geometry" />
        </mxCell>
      </root>
    </mxGraphModel>
  </diagram>
</mxfile>
